<svg height="512" viewBox="0 0 64 64" width="512" xmlns="http://www.w3.org/2000/svg"><g id="appointment-hospital-calendar-date-schedule"><path d="m59 30h-5v-2h-2v2h-8v-27a1 1 0 0 0 -1-1h-36a1 1 0 0 0 -1 1v53h-3a1 1 0 0 0 -1 1v4a1 1 0 0 0 1 1h56a3.009 3.009 0 0 0 3-3v-26a3.009 3.009 0 0 0 -3-3zm-51-26h34v26h-3v-3a1 1 0 0 0 -1-1h-6a1 1 0 0 0 -1 1v3h-2v-3a1 1 0 0 0 -1-1h-6a1 1 0 0 0 -1 1v6a1 1 0 0 0 1 1h2v22h-16zm24 52h-2v-2h2zm0-4h-2v-2h2zm0-4h-2v-2h2zm0-4h-2v-2h2zm4 12h-2v-2h2zm0-4h-2v-2h2zm0-4h-2v-2h2zm0-4h-2v-2h2zm4 12h-2v-2h2zm0-4h-2v-2h2zm0-4h-2v-2h2zm0-4h-2v-2h2zm4 12h-2v-2h2zm0-4h-2v-2h2zm0-4h-2v-2h2zm0-4h-2v-2h2zm4 12h-2v-2h2zm0-4h-2v-2h2zm0-4h-2v-2h2zm0-4h-2v-2h2zm4 12h-2v-2h2zm0-4h-2v-2h2zm0-4h-2v-2h2zm0-4h-2v-2h2zm4 12h-2v-2h2zm0-4h-2v-2h2zm0-4h-2v-2h2zm0-4h-2v-2h2zm4-8h-34v-3a1 1 0 0 1 1-1h5v2h2v-2h8v2h2v-2h8v2h2v-2h5a1 1 0 0 1 1 1z"/><path d="m24 12h2v-2h2v-2h-2v-2h-2v2h-2v2h2z"/><rect height="8" rx="1" width="8" x="11" y="16"/><rect height="8" rx="1" width="8" x="21" y="16"/><rect height="8" rx="1" width="8" x="31" y="16"/><rect height="8" rx="1" width="8" x="11" y="26"/><rect height="8" rx="1" width="8" x="11" y="36"/><rect height="8" rx="1" width="8" x="11" y="46"/></g></svg>