<svg id="Capa_1" enable-background="new 0 0 512 512" height="512" viewBox="0 0 512 512" width="512" xmlns="http://www.w3.org/2000/svg"><g><path d="m49.5 90.902c-27.21-.65-49.5 21.28-49.5 48.4v71.44c0 30.58 7.08 60.71 20.46 87.13 5.17 10.21 10.78 19.02 16.36 26.54v-66.33c-4.49-15.15-6.82-31.16-6.82-47.34v-71.44c0-10.11 8.17-18.41 18.41-18.41 5.976 0 11.275 2.97 14.66 7.6 8.49-5.24 17.2-10.21 26.08-14.87-8.44-13.32-23.07-22.35-39.65-22.72z"/><path d="m462.5 90.902c-16.58.37-31.21 9.4-39.65 22.72 8.87 4.66 17.59 9.63 26.08 14.87 3.378-4.621 8.674-7.6 14.66-7.6 10.24 0 18.41 8.29 18.41 18.41v71.44c0 16.18-2.33 32.19-6.82 47.34v66.33c5.58-7.52 11.19-16.33 16.36-26.54 13.38-26.42 20.46-56.55 20.46-87.13v-71.44c0-27.11-22.27-49.05-49.5-48.4z"/><path d="m66.82 161.722v35.26c22.45-13.45 56.21-30.24 98.71-41.26 46.51-12.06 93.89-14.68 140.86-7.79 46.96 6.9 93.51 23.37 138.79 49.08v-35.29c-54.29-36.29-123.42-62.78-189.18-62.78-65.72 0-134.84 26.46-189.18 62.78z"/><path d="m174.32 184.442c-51.3 13.09-89.31 35.78-107.5 48.21v54.74c18.19 12.44 56.2 35.13 107.5 48.23 91.48 23.35 182.51 7.39 270.86-47.43v-56.32c-88.35-54.83-179.38-70.78-270.86-47.43zm96.68 39.5v21.06h21.06c8.28 0 15 6.71 15 15 0 8.28-6.72 15-15 15h-21.06v21.05c0 8.29-6.72 15-15 15s-15-6.71-15-15v-21.05h-21.06c-8.28 0-15-6.72-15-15 0-8.29 6.72-15 15-15h21.06v-21.06c0-8.29 6.72-15 15-15s15 6.71 15 15z"/><path d="m165.53 364.342c-42.5-11.02-76.26-27.82-98.71-41.26v32.33c.26.2 41.27 30.36 95.74 50.26 56.258 20.55 130.383 20.623 186.88 0 54.47-19.9 95.48-50.06 95.74-50.26v-32.36c-45.28 25.71-91.83 42.18-138.79 49.07-46.97 6.9-94.35 4.28-140.86-7.78z"/></g></svg>