<svg height="480pt" viewBox="-72 0 480 480.00008" width="480pt" xmlns="http://www.w3.org/2000/svg"><path d="m328.96875 61.65625-54.625-54.625c-4.492188-4.515625-10.601562-7.046875-16.972656-7.03125h-233.371094c-13.25.015625-23.984375 10.75-24 24v432c.015625 13.25 10.75 23.984375 24 24h288c13.25-.015625 23.984375-10.75 24-24v-377.375c.015625-6.367188-2.515625-12.480469-7.03125-16.96875zm-56.96875-34.34375 36.6875 36.6875h-28.6875c-4.417969-.003906-7.996094-3.582031-8-8zm40 436.6875h-288c-4.417969-.003906-7.996094-3.582031-8-8v-432c.003906-4.417969 3.582031-7.996094 8-8h232v40c.015625 13.25 10.75 23.984375 24 24h40v376c-.003906 4.417969-3.582031 7.996094-8 8zm0 0"/><path d="m136 176h64v-32h32v-64h-32v-32h-64v32h-32v64h32zm-16-48v-32h32v-32h32v32h32v32h-32v32h-32v-32zm0 0"/><path d="m96 232v-16c-.011719-8.832031-7.167969-15.988281-16-16h-16c-8.832031.011719-15.988281 7.167969-16 16v16c.011719 8.832031 7.167969 15.988281 16 16h16c8.832031-.011719 15.988281-7.167969 16-16zm-32-16h16l.011719 16h-16.011719zm0 0"/><path d="m112 200h16v16h-16zm0 0"/><path d="m144 200h112v16h-112zm0 0"/><path d="m112 232h16v16h-16zm0 0"/><path d="m144 232h112v16h-112zm0 0"/><path d="m48 264h16v16h-16zm0 0"/><path d="m80 264h176v16h-176zm0 0"/><path d="m48 296h16v16h-16zm0 0"/><path d="m80 296h176v16h-176zm0 0"/><path d="m272 200h16v16h-16zm0 0"/><path d="m272 232h16v16h-16zm0 0"/><path d="m272 328h-16c-8.832031.011719-15.988281 7.167969-16 16v16c.011719 8.832031 7.167969 15.988281 16 16h16c8.832031-.011719 15.988281-7.167969 16-16v-16c-.011719-8.832031-7.167969-15.988281-16-16zm0 32h-16v-16h16zm0 0"/><path d="m208 328h16v16h-16zm0 0"/><path d="m80 328h112v16h-112zm0 0"/><path d="m208 360h16v16h-16zm0 0"/><path d="m80 360h112v16h-112zm0 0"/><path d="m48 328h16v16h-16zm0 0"/><path d="m48 360h16v16h-16zm0 0"/><path d="m272 264h16v16h-16zm0 0"/><path d="m272 296h16v16h-16zm0 0"/><path d="m48 392h16v16h-16zm0 0"/><path d="m80 392h176v16h-176zm0 0"/><path d="m48 424h16v16h-16zm0 0"/><path d="m80 424h176v16h-176zm0 0"/><path d="m272 392h16v16h-16zm0 0"/><path d="m272 424h16v16h-16zm0 0"/></svg>