<svg height="480pt" viewBox="0 0 480.03776 480" width="480pt" xmlns="http://www.w3.org/2000/svg"><path d="m480.039062 8.03125c.003907-3.105469-1.789062-5.933594-4.601562-7.253906-2.8125-1.320313-6.132812-.894532-8.519531 1.09375-2.082031 1.761718-50.878907 43.601562-50.878907 150.160156.386719 5.90625 2.691407 11.523438 6.558594 16l-1.121094.402344c-3.257812 1.097656-5.449218 4.160156-5.4375 7.597656v272c0 17.671875 14.324219 32 32 32 17.671876 0 32-14.328125 32-32v-288c-.015624-1.902344-.695312-3.742188-1.921874-5.199219 1.230468-3.46875 1.878906-7.117187 1.921874-10.800781zm-16 136c-.023437 2.617188-.566406 5.199219-1.601562 7.601562l-1.601562 3.679688-13.117188 4.398438-9.039062 2.960937c-6.320313-7.601563-6.640626-10.640625-6.640626-10.640625 0-63.597656 18.640626-102.398438 32-122zm0 0"/><path d="m186.125 77.359375c14.300781 18.464844 39.824219 23.941406 60.441406 12.972656 20.617188-10.964843 30.339844-35.191406 23.019532-57.371093-7.316407-22.175782-29.546876-35.859376-52.644532-32.398438-23.097656 3.457031-40.34375 23.046875-40.847656 46.398438l-13.511719 65.070312h-10.542969c-4.417968 0-8 3.582031-8 8s3.582032 8 8 8h7.199219l-27.199219 131.199219-22.296874-131.199219h10.296874c4.417969 0 8-3.582031 8-8s-3.582031-8-8-8h-13.015624l-11.035157-64.984375c-.480469-23.242187-17.546875-42.800781-40.511719-46.421875-22.964843-3.621094-45.222656 9.738281-52.832031 31.703125-7.609375 21.96875 1.617188 46.230469 21.902344 57.589844 20.28125 11.363281 45.792969 6.550781 60.546875-11.414063l38 223.785156-34.886719 168.144532c-.898437 4.324218 1.882813 8.558594 6.207031 9.453125.535157.101562 1.078126.152343 1.625.144531 3.792969-.007812 7.0625-2.679688 7.824219-6.398438l26.574219-128 21.695312 127.765626c.667969 3.84375 4.007813 6.644531 7.90625 6.632812.449219 0 .898438-.039062 1.34375-.113281 4.355469-.734375 7.289063-4.867188 6.550782-9.222657l-28.550782-168.121093zm37.914062-61.328125c17.671876 0 32 14.328125 32 32s-14.328124 32-32 32c-17.675781 0-32-14.328125-32-32s14.324219-32 32-32zm-176 64c-17.675781 0-32-14.328125-32-32s14.324219-32 32-32c17.671876 0 32 14.328125 32 32s-14.328124 32-32 32zm0 0"/><path d="m396.117188 422.191406c-4.3125 19-11.488282 37.234375-21.28125 54.082032-1.476563 2.328124-4.039063 3.742187-6.796876 3.757812-1.496093-.011719-2.960937-.425781-4.242187-1.199219-1.804687-1.121093-3.089844-2.917969-3.570313-4.988281-.480468-2.070312-.117187-4.25 1.011719-6.050781.480469-.800781 50.398438-82.800781.558594-142.640625-11.382813-12.945313-19.523437-28.410156-23.757813-45.121094h-20.082031c-4.234375 16.710938-12.375 32.175781-23.757812 45.121094-49.839844 59.839844.160156 141.839844.636719 142.640625 1.128906 1.800781 1.492187 3.980469 1.015624 6.050781-.480468 2.070312-1.765624 3.867188-3.574218 4.988281-1.28125.773438-2.742188 1.1875-4.238282 1.199219-2.761718-.015625-5.320312-1.429688-6.800781-3.757812-9.800781-16.851563-17-35.082032-21.359375-54.082032-9.441406-41.519531-1.839844-78.640625 22-107.28125 12.960938-13.96875 20.75-31.949218 22.078125-50.957031 0-.160156.082031-.320313.082031-.480469v-55.441406c0-.160156.078126-.238281.078126-.398438 0-.160156-.078126-.242187-.078126-.402343l16-160c.445313-4.078125 3.894532-7.167969 8-7.167969 4.105469 0 7.550782 3.089844 8 7.167969l16 160c0 .160156-.082031.242187-.082031.402343 0 .160157.082031.238282.082031.398438v55.921875c1.292969 19 9.058594 36.984375 22 50.957031 23.839844 28.640625 31.519532 65.761719 22.078126 107.28125zm0 0"/><path d="m216.039062 187.3125v36.71875h8c4.417969 0 8 3.582031 8 8v176c0 4.417969-3.582031 8-8 8h-8v36.71875l13.679688 13.601562c3.117188 3.144532 3.117188 8.214844 0 11.359376-3.15625 3.09375-8.207031 3.09375-11.359375 0l-16-16c-1.476563-1.523438-2.304687-3.558594-2.320313-5.679688v-40h-8c-4.417968 0-8-3.582031-8-8v-176c0-4.417969 3.582032-8 8-8h8v-40c.015626-2.121094.84375-4.152344 2.320313-5.679688l18.398437-18.320312-18.398437-18.320312c-3.136719-3.136719-3.136719-8.222657 0-11.359376 3.136719-3.136718 8.222656-3.136718 11.359375 0l24 24c3.117188 3.144532 3.117188 8.214844 0 11.359376zm0 0"/></svg>