<?xml version="1.0" encoding="iso-8859-1"?>
<!-- Generator: Adobe Illustrator 19.0.0, SVG Export Plug-In . SVG Version: 6.00 Build 0)  -->
<svg version="1.1" id="Capa_1" xmlns="http://www.w3.org/2000/svg" xmlns:xlink="http://www.w3.org/1999/xlink" x="0px" y="0px"
	 viewBox="0 0 512 512" style="enable-background:new 0 0 512 512;" xml:space="preserve">
<g>
	<g>
		<path d="M396.222,230.772h-219.66c-4.146,0-7.505,3.36-7.505,7.505c0,4.145,3.36,7.505,7.505,7.505h219.66
			c4.145,0,7.505-3.36,7.505-7.505S400.367,230.772,396.222,230.772z"/>
	</g>
</g>
<g>
	<g>
		<path d="M141.372,230.772h-25.596c-4.145,0-7.505,3.36-7.505,7.505s3.36,7.505,7.505,7.505h25.596c4.145,0,7.505-3.36,7.505-7.505
			S145.517,230.772,141.372,230.772z"/>
	</g>
</g>
<g>
	<g>
		<path d="M396.222,303.75H115.776c-4.145,0-7.505,3.36-7.505,7.505s3.36,7.505,7.505,7.505h280.446c4.145,0,7.505-3.36,7.505-7.505
			S400.367,303.75,396.222,303.75z"/>
	</g>
</g>
<g>
	<g>
		<path d="M396.222,386.112h-40.794c-4.145,0-7.505,3.36-7.505,7.505c0,4.145,3.36,7.505,7.505,7.505h40.794
			c4.145,0,7.505-3.36,7.505-7.505S400.367,386.112,396.222,386.112z"/>
	</g>
</g>
<g>
	<g>
		<path d="M320.155,386.112H115.776c-4.145,0-7.505,3.36-7.505,7.505c0,4.145,3.36,7.505,7.505,7.505h204.379
			c4.145,0,7.505-3.36,7.505-7.505S324.3,386.112,320.155,386.112z"/>
	</g>
</g>
<g>
	<g>
		<path d="M451.53,113.163c-0.018-0.181-0.049-0.359-0.08-0.536c-0.011-0.064-0.017-0.129-0.029-0.192
			c-0.043-0.213-0.098-0.422-0.158-0.628c-0.008-0.027-0.013-0.054-0.021-0.081c-0.064-0.21-0.139-0.415-0.221-0.616
			c-0.01-0.024-0.017-0.05-0.027-0.074c-0.079-0.19-0.168-0.373-0.262-0.554c-0.019-0.037-0.034-0.075-0.053-0.111
			c-0.087-0.163-0.185-0.32-0.284-0.475c-0.033-0.052-0.061-0.105-0.095-0.156c-0.097-0.145-0.204-0.283-0.311-0.421
			c-0.043-0.056-0.082-0.115-0.127-0.169c-0.139-0.169-0.287-0.33-0.44-0.486c-0.018-0.018-0.033-0.039-0.051-0.057L342.963,2.198
			c-0.015-0.015-0.031-0.027-0.046-0.042c-0.16-0.157-0.325-0.308-0.498-0.451c-0.047-0.039-0.097-0.071-0.145-0.109
			c-0.146-0.114-0.292-0.227-0.446-0.33c-0.041-0.028-0.085-0.05-0.127-0.077c-0.165-0.106-0.331-0.209-0.504-0.302
			c-0.031-0.016-0.063-0.029-0.094-0.045c-0.186-0.097-0.375-0.189-0.571-0.27c-0.021-0.009-0.043-0.015-0.064-0.023
			c-0.205-0.083-0.413-0.159-0.626-0.224c-0.025-0.008-0.052-0.012-0.077-0.02c-0.208-0.061-0.418-0.116-0.633-0.159
			c-0.06-0.012-0.122-0.017-0.182-0.028c-0.181-0.032-0.361-0.063-0.546-0.081C338.157,0.013,337.907,0,337.656,0H82.434
			C70.301,0,60.431,9.871,60.431,22.003v467.994c0,12.132,9.871,22.003,22.004,22.003h347.13c12.133,0,22.004-9.871,22.004-22.003
			V113.912C451.567,113.661,451.554,113.411,451.53,113.163z M345.16,25.623l80.784,80.784h-75.202
			c-3.078,0-5.582-2.504-5.582-5.582V25.623z M436.558,489.997c0,3.856-3.138,6.993-6.994,6.993H82.434
			c-3.856,0-6.994-3.137-6.994-6.993V22.003c0-3.856,3.138-6.993,6.994-6.993h247.717v85.815c0,11.354,9.237,20.591,20.591,20.591
			h85.816V489.997z"/>
	</g>
</g>
<g>
	<g>
		<path d="M242.296,95.927h-38.222V57.705c0-5.593-4.55-10.143-10.142-10.143H166.78c-5.593,0-10.143,4.55-10.143,10.143v38.222
			h-38.222c-5.593,0-10.143,4.55-10.143,10.143v27.152c-0.001,5.593,4.549,10.143,10.143,10.143h38.222v38.222
			c0,5.593,4.55,10.143,10.143,10.143h27.152c5.592,0,10.142-4.55,10.142-10.143v-38.222h38.222c5.593,0,10.143-4.55,10.143-10.143
			V106.07C252.439,100.477,247.889,95.927,242.296,95.927z M237.432,128.356h-40.861c-4.145,0-7.505,3.36-7.505,7.505v40.86h-17.419
			v-40.86c0-4.145-3.36-7.505-7.505-7.505h-40.861v-17.419h40.861c4.145,0,7.505-3.36,7.505-7.505V62.571h17.419v40.861
			c0,4.145,3.36,7.505,7.505,7.505h40.861V128.356z"/>
	</g>
</g>
<g>
</g>
<g>
</g>
<g>
</g>
<g>
</g>
<g>
</g>
<g>
</g>
<g>
</g>
<g>
</g>
<g>
</g>
<g>
</g>
<g>
</g>
<g>
</g>
<g>
</g>
<g>
</g>
<g>
</g>
</svg>
