<svg id="Layer_1" enable-background="new 0 0 512.383 512.383" height="512" viewBox="0 0 512.383 512.383" width="512" xmlns="http://www.w3.org/2000/svg"><g><path d="m420.08 195.123c-.003-34.386-24.651-63.111-57.204-69.471v-35.396h12.732c8.284 0 15-6.716 15-15v-60.256c0-8.284-6.716-15-15-15h-237.57c-8.284 0-15 6.716-15 15v60.256c0 8.284 6.716 15 15 15h13.463v35.016c-33.602 5.501-59.329 34.726-59.329 69.859v256.45c0 19.395 7.72 35.455 22.326 46.444 12.484 9.394 29.247 14.358 48.478 14.358h198.062c15.822 0 30.692-6.166 41.872-17.362s17.324-26.075 17.302-41.883zm-297.908 36.232h267.927l.085 167.06h-268.012zm238.436-171.099h-29.393v-30.256h29.393zm-88.785 0v-30.256h29.393v30.256zm-59.393 0v-30.256h29.393v30.256zm-59.392-30.256h29.393v30.256h-29.393zm179.838 60.256v34.072h-151.375v-34.072zm-169.901 64.072h186.302c22.499 0 40.803 18.304 40.803 40.803v.008l.003 6.217h-267.911v-6.225c0-22.499 18.304-40.803 40.803-40.803zm218.707 319.496c-5.513 5.52-12.844 8.56-20.645 8.56h-198.062c-12.269 0-40.804-3.001-40.804-30.803v-23.165h268.027l.013 24.752c.012 7.8-3.017 15.136-8.529 20.656z"/><path d="m293.316 301.111h-22.124v-22.125c0-8.284-6.716-15-15-15s-15 6.716-15 15v22.125h-22.125c-8.284 0-15 6.716-15 15s6.716 15 15 15h22.125v22.124c0 8.284 6.716 15 15 15s15-6.716 15-15v-22.124h22.124c8.284 0 15-6.716 15-15s-6.716-15-15-15z"/></g></svg>