<?xml version="1.0" encoding="UTF-8"?>
<svg xmlns="http://www.w3.org/2000/svg" viewBox="0 0 64 64" width="512" height="512"><g id="Scalpal-Medical-Surgery-Healthcaer-Medical_equipment" data-name="Scalpal-Medical-Surgery-Healthcaer-Medical equipment"><path d="M61.03,5.87a6.986,6.986,0,0,0-4.34-3.86l-1.32-.4a7,7,0,0,0-8.45,3.83L32.09,38.59A1,1,0,0,0,33,40H47a.982.982,0,0,0,.9-.57L60.96,11.68A6.975,6.975,0,0,0,61.03,5.87Zm-1.88,4.96L46.37,38H34.54L48.74,6.25a5.013,5.013,0,0,1,6.04-2.73l1.32.4a5,5,0,0,1,3.05,6.91Z"/><path d="M45,33H40a1,1,0,0,0,0,2h5a1,1,0,0,0,0-2Z"/><path d="M42,31h5a1,1,0,0,0,0-2H42a1,1,0,0,0,0,2Z"/><path d="M44,27h5a1,1,0,0,0,0-2H44a1,1,0,0,0,0,2Z"/><path d="M17,60H3a1,1,0,0,0,0,2H17a1,1,0,0,0,0-2Z"/><path d="M61,60H37a1,1,0,0,0,0,2H61a1,1,0,0,0,0-2Z"/><path d="M40,9v8.08a1,1,0,0,1-2,0V10H26V25a1,1,0,0,1-1,1H10V38H25a1,1,0,0,1,1,1v5.06a1,1,0,0,1-2,0V40H9a1,1,0,0,1-1-1V25a1,1,0,0,1,1-1H24V9a1,1,0,0,1,1-1H39A1,1,0,0,1,40,9Z"/><path d="M17.605,56.021A28,28,0,0,1,32,4,27.771,27.771,0,0,1,43.552,6.486a1,1,0,0,0,.826-1.822A30.016,30.016,0,0,0,2,32,30.181,30.181,0,0,0,16.575,57.736a1,1,0,0,0,1.03-1.715Z"/><path d="M40.446,53.256l5.428-9.771A1,1,0,0,0,45,42H31a1,1,0,0,0-.874.515l-10,18A1,1,0,0,0,21,62h4.585A17.01,17.01,0,0,0,40.446,53.256ZM25.585,60H22.7l8.888-16h4.887l-4.062,8.269a1,1,0,1,0,1.8.881L38.7,44h4.6l-4.6,8.285A15.009,15.009,0,0,1,25.585,60Z"/></g></svg>
