<?xml version="1.0" encoding="iso-8859-1"?>
<!-- Generator: Adobe Illustrator 21.0.0, SVG Export Plug-In . SVG Version: 6.00 Build 0)  -->
<svg xmlns="http://www.w3.org/2000/svg" xmlns:xlink="http://www.w3.org/1999/xlink" version="1.1" id="Capa_1" x="0px" y="0px" viewBox="0 0 512 512" style="enable-background:new 0 0 512 512;" xml:space="preserve" width="512" height="512">
<g>
	<path d="M447.879,196.437C432.459,89.759,362.553,15.5,256,15.5c-107.366,0-176.598,75.221-191.879,180.937   C28.829,201.969,0,232.455,0,270.5c0,41.547,34.4,74.993,75.977,74.992c2.068,0,4.144-0.089,6.223-0.256   C111.826,418.806,178,496.5,256,496.5c78.214,0,144.306-78.023,173.8-151.264c2.078,0.167,4.154,0.256,6.223,0.256   C477.572,345.491,512,312.082,512,270.5C512,232.461,483.182,201.971,447.879,196.437z M367.14,396.303   c-8.013-1.485-40.001,8.201-111.14,8.201c-71.451,0-103.384-9.636-111.139-8.2c-8.308-11.176-15.754-23.075-22.37-35.651   c43.723,9.194,88.542,13.851,133.509,13.851s89.786-4.656,133.509-13.851C382.841,373.329,375.444,385.118,367.14,396.303z    M121.009,121.374c88.473-19.788,181.509-19.788,269.981,0c6.433,10.896,11.801,22.589,16.131,34.826   c-49.271-13.203-99.976-19.91-151.122-19.91s-101.851,6.707-151.122,19.91C109.208,143.962,114.577,132.269,121.009,121.374z    M404.625,326.748c-5.864,0.206-63.004,17.756-148.625,17.756c-86.402,0-142.009-17.521-148.625-17.757   c-4.158-11.233-7.573-22.645-10.19-34.061c51.68,14.606,105.01,22.024,158.816,22.024s107.136-7.418,158.816-22.024   C412.198,304.103,408.783,315.515,404.625,326.748z M421,240.5c0,6.363-0.304,12.818-0.892,19.331   c-107.456,33.333-220.76,33.333-328.215,0C91.304,253.318,91,246.863,91,240.5c0-16.993,1.57-34.01,4.761-50.526   c105.034-31.763,215.443-31.763,320.477,0C419.43,206.49,421,223.507,421,240.5z M362.32,85.257   c-70.212-11.62-142.427-11.62-212.639,0C175.791,60.788,210.98,45.5,256,45.5C301.02,45.5,336.209,60.788,362.32,85.257z M30,270.5   c0-19.373,13.292-36.345,31.251-42.516C61.089,232.128,61,236.3,61,240.5c0,24.603,3.777,49.923,10.902,74.787   C48.502,313.231,30,293.896,30,270.5z M175.006,429.892c26.799,3.06,53.929,4.612,80.994,4.612s54.195-1.553,80.994-4.612   C310.978,453.502,282.743,466.5,256,466.5S201.022,453.502,175.006,429.892z M440.098,315.286   C447.223,290.422,451,265.102,451,240.5c0-4.2-0.089-8.372-0.251-12.516C468.708,234.155,482,251.127,482,270.5   C482,293.898,463.497,313.23,440.098,315.286z"/>
	<path d="M187.213,216.713c-5.666,5.666-13.2,8.787-21.213,8.787s-15.547-3.121-21.213-8.787c-5.856-5.858-15.354-5.857-21.213,0   c-5.858,5.858-5.858,15.355,0,21.213C134.906,249.259,149.974,255.5,166,255.5s31.094-6.241,42.426-17.574   c5.858-5.858,5.858-15.355,0-21.213C202.568,210.855,193.07,210.855,187.213,216.713z"/>
	<path d="M346,255.5c16.026,0,31.094-6.241,42.426-17.574c5.858-5.858,5.858-15.355,0-21.213c-5.857-5.857-15.355-5.858-21.213,0   c-5.666,5.666-13.2,8.787-21.213,8.787s-15.547-3.121-21.213-8.787c-5.857-5.858-15.355-5.857-21.213,0   c-5.858,5.858-5.858,15.355,0,21.213C314.906,249.259,329.974,255.5,346,255.5z"/>
</g>















</svg>
